<svg width="61" height="45" viewBox="0 0 61 45" fill="none" xmlns="http://www.w3.org/2000/svg">
<path fill-rule="evenodd" clip-rule="evenodd" d="M36.2945 5.98511H23.3129V3.98511H36.2945C42.4608 3.98511 47.454 8.9993 47.454 15.1778V19.3539H49.8405C55.0716 19.3539 59.3067 23.6076 59.3067 28.8478V34.4305C59.3067 39.6708 55.0716 43.9244 49.8405 43.9244H24.4637C22.8606 44.0024 20.6587 43.7642 18.5554 42.8974C16.4287 42.0209 14.3509 40.477 13.1601 37.9225L14.9728 37.0775C15.9002 39.0669 17.5279 40.3107 19.3175 41.0483C21.119 41.7907 23.0318 41.9949 24.3879 41.9257L24.4133 41.9244H49.8405C53.9609 41.9244 57.3067 38.5724 57.3067 34.4305V28.8478C57.3067 24.706 53.9609 21.3539 49.8405 21.3539H45.454V15.1778C45.454 10.0977 41.3501 5.98511 36.2945 5.98511Z" fill="#1A120B"/>
<path fill-rule="evenodd" clip-rule="evenodd" d="M9.3107 9.72374L6.47578 22.322C5.17676 28.0948 7.90287 34.0234 13.1233 36.7788C13.7042 37.0854 14.4219 36.8197 14.6651 36.2081L24.4214 11.6686C25.653 8.57067 23.6358 5.14045 20.3374 4.72401L16.1104 4.19034C12.8464 4.23637 10.0315 6.52062 9.3107 9.72374ZM16.2109 2.49086C12.1128 2.49086 8.56148 5.33911 7.65901 9.34965L4.82409 21.9479C3.35638 28.4704 6.43653 35.169 12.3349 38.2822C13.8055 39.0584 15.6223 38.3858 16.2379 36.8374L25.9941 12.298C27.6363 8.16741 24.9466 3.59379 20.5488 3.03853L16.2109 2.49086Z" fill="#1A120B"/>
<path d="M54.3355 28.2017C53.4665 29.7117 51.2941 29.7117 50.4251 28.2017L49.2031 26.0782C48.3341 24.5682 49.4204 22.6807 51.1583 22.6807L53.6023 22.6807C55.3403 22.6807 56.4265 24.5682 55.5575 26.0782L54.3355 28.2017Z" fill="#1A120B"/>
<path fill-rule="evenodd" clip-rule="evenodd" d="M25.9999 15C25.9999 12.2386 28.2385 10 30.9999 10C33.7614 10 35.9999 12.2386 35.9999 15V19C35.9999 21.7614 33.7614 24 30.9999 24C28.2385 24 25.9999 21.7614 25.9999 19V15ZM30.9999 12C29.3431 12 27.9999 13.3431 27.9999 15V19C27.9999 20.6569 29.3431 22 30.9999 22C32.6568 22 33.9999 20.6569 33.9999 19V15C33.9999 13.3431 32.6568 12 30.9999 12Z" fill="#1A120B"/>
<path fill-rule="evenodd" clip-rule="evenodd" d="M44.9999 33C44.9999 31.3431 46.3431 30 47.9999 30H48.9999C50.6568 30 51.9999 31.3431 51.9999 33V37C51.9999 38.6569 50.6568 40 48.9999 40H47.9999C46.3431 40 44.9999 38.6569 44.9999 37V33ZM47.9999 32C47.4477 32 46.9999 32.4477 46.9999 33V37C46.9999 37.5523 47.4477 38 47.9999 38H48.9999C49.5522 38 49.9999 37.5523 49.9999 37V33C49.9999 32.4477 49.5522 32 48.9999 32H47.9999Z" fill="#1A120B"/>
<path fill-rule="evenodd" clip-rule="evenodd" d="M36.9999 15C36.9999 12.2386 39.2385 10 41.9999 10C44.7614 10 46.9999 12.2386 46.9999 15V19C46.9999 21.7614 44.7614 24 41.9999 24C39.2385 24 36.9999 21.7614 36.9999 19V15ZM41.9999 12C40.3431 12 38.9999 13.3431 38.9999 15V19C38.9999 20.6569 40.3431 22 41.9999 22C43.6568 22 44.9999 20.6569 44.9999 19V15C44.9999 13.3431 43.6568 12 41.9999 12Z" fill="#1A120B"/>
<path fill-rule="evenodd" clip-rule="evenodd" d="M40.9999 11C39.8954 11 38.9999 11.8954 38.9999 13V20C38.9999 21.1046 39.8954 22 40.9999 22H41.9999C43.1045 22 43.9999 21.1046 43.9999 20V13C43.9999 11.8954 43.1045 11 41.9999 11H40.9999ZM40.9999 14C40.4477 14 39.9999 14.4477 39.9999 15V17C39.9999 17.5523 40.4477 18 40.9999 18C41.5522 18 41.9999 17.5523 41.9999 17V15C41.9999 14.4477 41.5522 14 40.9999 14Z" fill="#1A120B"/>
<path fill-rule="evenodd" clip-rule="evenodd" d="M29.9999 11C28.8954 11 27.9999 11.8954 27.9999 13V20C27.9999 21.1046 28.8954 22 29.9999 22H30.9999C32.1045 22 32.9999 21.1046 32.9999 20V13C32.9999 11.8954 32.1045 11 30.9999 11H29.9999ZM29.9999 14C29.4477 14 28.9999 14.4477 28.9999 15V17C28.9999 17.5523 29.4477 18 29.9999 18C30.5522 18 30.9999 17.5523 30.9999 17V15C30.9999 14.4477 30.5522 14 29.9999 14Z" fill="#1A120B"/>
</svg>
